<svg width="16" height="16" viewBox="0 0 16 16" fill="none" xmlns="http://www.w3.org/2000/svg">
<path d="M7.87328 10.9897C7.88831 11.0089 7.90752 11.0244 7.92945 11.0351C7.95138 11.0458 7.97545 11.0513 7.99984 11.0513C8.02424 11.0513 8.04831 11.0458 8.07024 11.0351C8.09216 11.0244 8.11137 11.0089 8.12641 10.9897L10.3764 8.14301C10.4588 8.03854 10.3844 7.88386 10.2498 7.88386H8.76123V1.08564C8.76123 0.997248 8.68891 0.924927 8.60051 0.924927H7.39516C7.30676 0.924927 7.23444 0.997248 7.23444 1.08564V7.88185H5.74984C5.61525 7.88185 5.54092 8.03653 5.62328 8.141L7.87328 10.9897ZM15.3525 10.2865H14.1472C14.0588 10.2865 13.9865 10.3589 13.9865 10.4472V13.541H2.01324V10.4472C2.01324 10.3589 1.94091 10.2865 1.85252 10.2865H0.647164C0.558772 10.2865 0.48645 10.3589 0.48645 10.4472V14.4249C0.48645 14.7805 0.773727 15.0678 1.12931 15.0678H14.8704C15.226 15.0678 15.5132 14.7805 15.5132 14.4249V10.4472C15.5132 10.3589 15.4409 10.2865 15.3525 10.2865Z" fill="black"/>
</svg>
