<svg width="247" height="150" viewBox="0 0 247 150" fill="none" xmlns="http://www.w3.org/2000/svg">
<path fill-rule="evenodd" clip-rule="evenodd" d="M18 3C9.71573 3 3 9.71573 3 18V88.6733C3 96.9576 9.71573 103.673 18 103.673H151.495L210.398 143.628L210.398 103.673H229C237.284 103.673 244 96.9576 244 88.6733V18C244 9.71573 237.284 3 229 3H18Z" fill="white"/>
<path d="M151.495 103.673L153.179 101.191L152.416 100.673H151.495V103.673ZM210.398 143.628L208.714 146.111L213.398 149.288V143.628H210.398ZM210.398 103.673V100.673H207.398V103.673H210.398ZM6 18C6 11.3726 11.3726 6 18 6V0C8.05888 0 0 8.05888 0 18H6ZM6 88.6733V18H0V88.6733H6ZM18 100.673C11.3726 100.673 6 95.3007 6 88.6733H0C0 98.6144 8.05887 106.673 18 106.673V100.673ZM151.495 100.673H18V106.673H151.495V100.673ZM212.082 141.145L153.179 101.191L149.811 106.156L208.714 146.111L212.082 141.145ZM207.398 103.673L207.398 143.628H213.398L213.398 103.673H207.398ZM229 100.673H210.398V106.673H229V100.673ZM241 88.6733C241 95.3007 235.627 100.673 229 100.673V106.673C238.941 106.673 247 98.6144 247 88.6733H241ZM241 18V88.6733H247V18H241ZM229 6C235.627 6 241 11.3726 241 18H247C247 8.05888 238.941 0 229 0V6ZM18 6H229V0H18V6Z" fill="black"/>
<path d="M52.9781 70H60.7541V53.56H75.5621V70H83.3141V30.4H75.5621V46.744H60.7541V30.4H52.9781V70ZM96.7504 40.312C97.9504 40.312 98.9744 39.88 99.8224 39.016C100.67 38.152 101.094 37.12 101.094 35.92C101.094 34.72 100.67 33.696 99.8224 32.848C98.9744 32 97.9504 31.576 96.7504 31.576C95.5344 31.576 94.4944 32 93.6304 32.848C92.7824 33.696 92.3584 34.72 92.3584 35.92C92.3584 37.136 92.7824 38.176 93.6304 39.04C94.4944 39.888 95.5344 40.312 96.7504 40.312ZM93.0544 70H100.422V45.424H93.0544V70ZM111.39 57.856H116.79L117.75 28.72H110.43L111.39 57.856ZM114.054 70.768C115.382 70.768 116.51 70.304 117.438 69.376C118.382 68.432 118.854 67.296 118.854 65.968C118.854 64.64 118.382 63.512 117.438 62.584C116.51 61.64 115.382 61.168 114.054 61.168C112.726 61.168 111.59 61.64 110.646 62.584C109.718 63.512 109.254 64.64 109.254 65.968C109.254 67.296 109.718 68.432 110.646 69.376C111.59 70.304 112.726 70.768 114.054 70.768Z" fill="black"/>
<g clip-path="url(#clip0)">
<path d="M156.056 67.4635C155.642 67.4418 155.229 67.3868 154.819 67.3097C154.412 67.2364 154.008 67.1383 153.605 67.022C152.803 66.7884 152.017 66.4741 151.269 66.0846C149.768 65.3096 148.406 64.2108 147.337 62.8661C146.267 61.5226 145.509 59.9373 145.14 58.2925C144.955 57.4689 144.859 56.6342 144.85 55.8052C144.851 55.3912 144.867 54.9775 144.913 54.5662C144.956 54.1572 145.019 53.7501 145.117 53.3482L145.409 54.5311C145.508 54.922 145.61 55.3035 145.72 55.6814C145.941 56.4352 146.189 57.1701 146.481 57.8774C147.065 59.2911 147.809 60.5995 148.742 61.771C149.671 62.9466 150.784 63.9827 152.019 64.9124C152.637 65.3767 153.288 65.8117 153.96 66.2329C154.296 66.4413 154.642 66.6466 154.99 66.8496L156.053 67.464" fill="#42ADE2"/>
<path d="M156.293 70.6058C156.019 70.785 155.735 70.9321 155.441 71.0658C155.151 71.199 154.845 71.3137 154.538 71.4129C153.923 71.6123 153.281 71.743 152.628 71.8107C151.321 71.9451 149.955 71.791 148.692 71.3326C147.426 70.878 146.272 70.1247 145.373 69.1634C144.921 68.6859 144.536 68.1608 144.212 67.6044C144.057 67.3222 143.913 67.0356 143.789 66.7406C143.668 66.4471 143.562 66.1451 143.488 65.8322C143.738 66.0346 143.977 66.2398 144.213 66.4391C144.447 66.638 144.682 66.8342 144.919 67.0205C145.388 67.3972 145.857 67.7461 146.336 68.0683C147.293 68.7075 148.284 69.2216 149.334 69.6006C150.384 69.9778 151.485 70.2203 152.644 70.3669C153.222 70.44 153.813 70.4868 154.423 70.5202C154.727 70.538 155.032 70.5494 155.347 70.562C155.657 70.5746 155.972 70.5836 156.296 70.6052" fill="#42ADE2"/>
<path d="M169.196 26.0851C169.623 26.1283 170.044 26.2046 170.46 26.3026C170.875 26.3971 171.284 26.5196 171.688 26.6543C172.501 26.9304 173.286 27.2874 174.032 27.7147C175.527 28.5706 176.864 29.7393 177.879 31.146C178.894 32.5476 179.575 34.1785 179.853 35.8479C179.991 36.6822 180.039 37.526 179.995 38.3578C179.971 38.7763 179.929 39.1896 179.857 39.5978C179.788 40.0075 179.697 40.4118 179.575 40.8097L179.344 39.6086C179.266 39.213 179.183 38.8214 179.092 38.4363C178.915 37.667 178.703 36.9188 178.447 36.1955C177.935 34.7456 177.249 33.3954 176.362 32.1715C175.48 30.9453 174.404 29.846 173.192 28.852C172.583 28.3542 171.941 27.8839 171.272 27.4274C170.94 27.1984 170.597 26.9771 170.248 26.7541L169.196 26.0851" fill="#42ADE2"/>
<path d="M176.629 24.5415C176.945 24.58 177.254 24.6456 177.563 24.7296C177.867 24.809 178.166 24.9118 178.464 25.0279C179.055 25.2616 179.617 25.559 180.15 25.9136C181.213 26.6201 182.132 27.5799 182.779 28.6963C183.434 29.8113 183.805 31.0811 183.851 32.3443C183.875 32.9753 183.823 33.6014 183.699 34.2099C183.635 34.5136 183.556 34.8142 183.454 35.1063C183.356 35.3978 183.237 35.6865 183.09 35.9637C183.033 35.6586 182.991 35.3608 182.944 35.0689C182.894 34.7757 182.85 34.4869 182.794 34.2043C182.688 33.6379 182.567 33.0897 182.415 32.5574C182.117 31.4947 181.712 30.5039 181.172 29.578C180.636 28.6499 179.967 27.7927 179.198 26.9698C178.813 26.5586 178.403 26.1579 177.972 25.7572C177.756 25.559 177.537 25.3604 177.312 25.1602C177.086 24.9592 176.857 24.756 176.629 24.5415" fill="#42ADE2"/>
<path d="M178.634 55.3748L184.337 51.1386L166.397 27.3905C165.194 25.8003 162.917 25.4226 161.348 26.5881L161.332 26.5994C159.763 27.7666 159.489 30.0368 160.729 31.6752L178.634 55.3748Z" fill="#FFD96A"/>
<path d="M171.901 60.3799L178.639 55.3757L159.189 29.6316C157.721 27.69 155.024 27.2305 153.164 28.6128C151.303 29.9954 150.984 32.695 152.452 34.6383L171.902 60.3825" fill="#FFD96A"/>
<path d="M166.028 64.7404L171.902 60.3764L153.594 36.1438C152.314 34.4517 149.964 34.0546 148.349 35.2568L148.338 35.2637C146.716 36.4687 146.443 38.8144 147.72 40.5071L166.028 64.7396" fill="#FFD96A"/>
<path d="M145.469 43.0673C143.961 44.1879 143.755 46.3304 144.942 47.9029L160.673 68.7206L166.027 64.7432L150.297 43.9236C149.111 42.3492 146.979 41.9457 145.469 43.0673" fill="#FFD96A"/>
<path d="M161.352 26.5875L161.336 26.5987C161.166 26.7246 161.016 26.872 160.877 27.0203C162.394 26.28 164.318 26.7275 165.387 28.1443L183.326 51.8926L184.341 51.1379L166.401 27.3898C165.199 25.7997 162.921 25.4219 161.352 26.5875" fill="#CC8930"/>
<path d="M153.164 28.612C152.99 28.7404 152.84 28.8929 152.696 29.0437C154.505 28.0986 156.846 28.6232 158.179 30.3855L177.627 56.1299L178.643 55.3761L159.192 29.632C157.724 27.6895 155.028 27.23 153.168 28.6123" fill="#CC8930"/>
<path d="M148.349 35.2612L148.338 35.2681C148.165 35.3962 148.015 35.5436 147.875 35.6937C149.443 34.9222 151.436 35.3886 152.58 36.9017L170.887 61.1344L171.901 60.3799L153.594 36.1473C152.314 34.4551 149.964 34.0581 148.349 35.2603" fill="#CC8930"/>
<path d="M145.469 43.0673C145.295 43.1974 145.143 43.3434 145.006 43.4966C146.446 42.8158 148.234 43.2869 149.283 44.6781L165.012 65.4978L166.028 64.7431L150.298 43.9234C149.111 42.3492 146.979 41.9456 145.469 43.0673" fill="#CC8930"/>
<path d="M189.651 33.7322C187.029 32.4883 183.628 35.1719 182.917 41.5579C182.421 46.0159 182.575 45.594 180.007 47.4987L177.804 44.5831C177.804 44.5831 169.231 44.613 159.67 54.6091C159.67 54.6091 154.084 60.1132 156.507 63.3177C156.507 63.3177 161.385 71.9675 167.323 75.2713C176.164 80.196 194.478 69.6181 190.333 53.139C189.51 49.864 189.858 47.9198 190.056 44.343C190.292 40.0363 192.529 35.1003 189.652 33.7321" fill="#FFD96A"/>
<path d="M189.651 33.7322C189.155 33.4961 188.63 33.4028 188.099 33.4486C188.22 33.4873 188.342 33.5269 188.459 33.5837C191.336 34.9494 189.097 39.8856 188.86 44.1943C188.665 47.7714 188.259 49.6924 189.085 52.9669C192.678 67.2483 179.395 77.1003 170.033 76.2574C179.402 78.1617 194.087 68.0739 190.333 53.1408C189.51 49.8658 189.857 47.9217 190.056 44.3449C190.292 40.0381 192.529 35.1022 189.652 33.7339" fill="#CC8930"/>
<path d="M174.49 65.9908C171.233 61.6777 171.889 55.7253 175.919 52.5723C174.96 52.7976 174.032 53.1997 173.201 53.8175C169.788 56.3525 169.203 61.3021 171.897 64.8676C173.075 66.4259 174.685 67.4546 176.407 67.9175C175.706 67.371 175.058 66.7358 174.494 65.9902" fill="#CC8930"/>
<path d="M172.561 63.7999C171.277 61.5563 168.548 60.4792 166.164 61.3863C165.783 61.5299 165.436 61.7169 165.122 61.9364C165.384 60.799 166.167 59.8269 167.325 59.386C169.254 58.6521 171.484 59.6658 172.312 61.6446C172.612 62.3594 172.683 63.1057 172.561 63.7999" fill="#CC8930"/>
<path d="M178.106 44.5706C171.166 45.0641 158.872 54.0116 156.064 60.946C156.61 52.1926 171.906 42.7206 178.106 44.5706Z" fill="#CC8930"/>
</g>
<defs>
<clipPath id="clip0">
<rect width="55" height="55" fill="white" transform="translate(136 28.3329) rotate(-8.71426)"/>
</clipPath>
</defs>
</svg>
