<svg width="18" height="18" viewBox="0 0 36 36" fill="none" xmlns="http://www.w3.org/2000/svg">
<path d="M18 36C27.9255 36 36 27.9255 36 18C36 8.0745 27.9255 0 18 0C8.0745 0 0 8.0745 0 18C0 27.9255 8.0745 36 18 36ZM18 2.25C26.685 2.25 33.75 9.315 33.75 18C33.75 26.685 26.685 33.75 18 33.75C9.315 33.75 2.25 26.685 2.25 18C2.25 9.315 9.315 2.25 18 2.25Z" fill="white"/>
<path d="M11.844 21.2325L14.196 20.211L13.536 20.8725C13.3245 21.084 13.206 21.3705 13.206 21.6675V26.07C13.206 27.078 14.424 27.567 15.126 26.865L17.487 24.504L22.632 27.0765C23.298 27.4095 24.1035 27.015 24.2415 26.271L27.177 10.1295C27.3315 9.26101 26.4765 8.55901 25.659 8.88001L6.58501 16.3455C5.73001 16.6785 5.61601 17.8485 6.39001 18.342L10.791 21.15C11.106 21.351 11.5035 21.3825 11.844 21.2325ZM24.603 11.712L22.2975 24.3945L17.7675 22.131C17.3295 21.912 16.8075 22.0035 16.47 22.3425L15.456 23.3565V22.137L19.9665 17.6265C20.841 16.752 19.857 15.309 18.723 15.7995L11.4975 18.9345L9.46651 17.6385L24.603 11.712Z" fill="white"/>
</svg>
