<svg width="89" height="43" viewBox="0 0 89 43" fill="none" xmlns="http://www.w3.org/2000/svg">
<path d="M0.0129242 0.185204H89V42.4289H0.0129242V0.185204ZM2.14707 2.32699V40.2872H86.8658V2.32699H2.14707Z" fill="#231F20"/>
<path d="M65.3693 14.9143L62.5569 29.417H57.5132L60.3129 14.9143H65.3693ZM66.405 9.37549L65.6891 13.2018H60.6708L61.3738 9.37549H66.405ZM56.4274 18.9347L51.8506 18.946C51.7116 18.0688 51.1222 17.6347 50.0864 17.6347C49.4803 17.6347 49.0172 17.756 48.7056 18.0033C48.3941 18.246 48.2384 18.5354 48.2384 18.8621C48.2384 19.2026 48.3771 19.4825 48.6509 19.702C48.9246 19.9258 49.6655 20.1358 50.8653 20.3272C52.7978 20.6444 54.0819 21.1251 54.7176 21.7691C55.3576 22.4129 55.6734 23.2715 55.6734 24.3448C55.6734 25.838 55.0503 27.1165 53.7999 28.1711C52.5494 29.2303 50.6465 29.7577 48.091 29.7577C46.0027 29.7577 44.4703 29.4217 43.5018 28.7451C42.5294 28.0732 41.9652 26.9626 41.801 25.4134L46.7563 24.9327C46.971 26.1087 47.67 26.6966 48.853 26.6966C49.4044 26.6966 49.8929 26.5658 50.3181 26.3C50.7391 26.0339 50.9496 25.656 50.9496 25.1661C50.9496 24.718 50.7981 24.4195 50.4949 24.2654C50.1918 24.1068 49.6151 23.9575 48.7687 23.8129C46.8194 23.4769 45.4976 22.9637 44.8071 22.2823C44.1167 21.5964 43.7713 20.7378 43.7713 19.6972C43.7713 18.8479 44.0324 18.022 44.5502 17.21C45.068 16.3982 45.8511 15.7589 46.8995 15.2876C47.9478 14.8211 49.236 14.5831 50.7644 14.5831C52.5158 14.5831 53.8589 14.8677 54.7935 15.437C55.728 16.0061 56.3741 17.5394 56.4274 18.9347ZM27.0488 19.3167C27.3519 17.9401 28.0436 16.4557 29.1245 15.7076C30.2075 14.9578 31.8822 14.5831 34.1512 14.5831C36.7237 14.5831 38.4625 14.9424 39.3633 15.6562C40.2643 16.3748 40.7148 17.4154 40.7148 18.7827C40.7148 19.6925 40.4875 21.1904 40.037 23.2809C39.6161 25.2548 39.4056 26.6314 39.4056 27.4059C39.4056 28.0637 39.5151 28.7357 39.7255 29.417H34.8291C34.7155 28.8431 34.6565 28.2925 34.6565 27.7605C33.343 29.0951 31.8737 29.7577 30.2527 29.7577C28.6024 29.7577 27.4151 29.3284 26.6911 28.4744C25.9668 27.6159 25.6049 26.6219 25.6049 25.4927C25.6049 24.2095 25.9248 23.2296 26.5732 22.5531C27.2174 21.8811 28.013 21.4236 28.9603 21.1812C29.9033 20.9385 31.1959 20.7285 32.8337 20.5464C34.286 20.3739 35.2587 20.2011 35.7428 20.0378C35.8395 19.6086 35.8902 19.2819 35.8902 19.0533C35.8902 18.6893 35.7259 18.4001 35.3933 18.1806C35.0564 17.9614 34.6144 17.8494 34.0671 17.8494C33.4902 17.8494 33.023 17.9521 32.6651 18.1573C32.3072 18.3627 31.9916 18.6137 31.722 19.267L27.0488 19.3167ZM17.2519 14.5831C19.5971 14.5831 21.3063 15.241 22.3799 16.5521C23.4534 17.8634 23.9882 19.4033 23.9882 21.1577C23.9882 22.5017 23.681 23.8641 23.0621 25.2454C22.4472 26.6314 21.521 27.7325 20.2832 28.5398C19.0455 29.3517 17.5216 29.7577 15.7112 29.7577C13.4165 29.7577 11.7242 29.1324 10.6295 27.8772C9.53489 26.6267 8.99178 25.0634 8.99178 23.197C8.99178 21.7318 9.31594 20.3131 9.9685 18.946C10.6254 17.5788 11.5725 16.5102 12.8146 15.7402C14.0565 14.9702 15.5343 14.5831 17.2519 14.5831ZM80.5398 18.9437L75.6923 18.946C75.5536 18.0688 74.9642 17.6347 73.9284 17.6347C73.3222 17.6347 72.859 17.756 72.5474 18.0033C72.236 18.246 72.0801 18.5354 72.0801 18.8621C72.0801 19.2026 72.219 19.4825 72.4928 19.702C72.7664 19.9258 73.5072 20.1358 74.7072 20.3272C76.6398 20.6444 77.9237 21.1251 78.5596 21.7691C79.1994 22.4129 79.5152 23.2715 79.5152 24.3448C79.5152 25.838 78.892 27.1165 77.6417 28.1711C76.3913 29.2303 74.4883 29.7577 71.9328 29.7577C69.8445 29.7577 68.3121 29.4217 67.3438 28.7451C66.3712 28.0732 65.8071 26.9626 65.6429 25.4134L70.5981 24.9327C70.8128 26.1087 71.5118 26.6966 72.6948 26.6966C73.2464 26.6966 73.7347 26.5658 74.1599 26.3C74.5809 26.0339 74.7914 25.656 74.7914 25.1661C74.7914 24.718 74.6399 24.4195 74.3366 24.2654C74.0337 24.1068 73.4569 23.9575 72.6107 23.8129C70.6614 23.4769 69.3394 22.9637 68.6489 22.2823C67.9584 21.5964 67.6133 20.7378 67.6133 19.6972C67.6133 18.8479 67.8741 18.022 68.3921 17.21C68.91 16.3982 69.693 15.7589 70.7414 15.2876C71.7896 14.8211 73.078 14.5831 74.6061 14.5831C76.3576 14.5831 77.7005 14.8677 78.6352 15.437C79.5698 16.0061 80.4256 17.6093 80.5398 18.9437ZM4.28122 4.46862V38.1455H84.7317V4.46862H4.28122ZM35.187 22.9215C32.8756 23.3509 31.52 23.7288 31.1159 24.0602C30.7159 24.3867 30.5137 24.7742 30.5137 25.2221C30.5137 25.6841 30.6569 26.0527 30.9434 26.3185C31.2337 26.5893 31.6042 26.7246 32.0547 26.7246C32.6861 26.7246 33.3135 26.44 33.9366 25.8707C34.5554 25.3014 34.9723 24.3168 35.187 22.9215ZM16.0311 26.0013C16.9699 26.0013 17.7151 25.4694 18.2667 24.4055C18.8139 23.3462 19.0918 22.1657 19.0918 20.8731C19.0918 19.9352 18.8814 19.2773 18.4604 18.8992C18.0435 18.5214 17.5804 18.33 17.0667 18.33C16.0058 18.33 15.2144 18.8621 14.6838 19.9305C14.1533 20.9944 13.8881 22.0863 13.8881 23.197C13.8881 23.9995 14.0944 24.6668 14.5112 25.1987C14.9238 25.7307 15.4333 26.0013 16.0311 26.0013Z" fill="#231F20"/>
</svg>
