<?xml version="1.0" encoding="utf-8"?>
<svg version="1.1" id="Pizza" xmlns="http://www.w3.org/2000/svg" xmlns:xlink="http://www.w3.org/1999/xlink" x="0px" y="0px"
	 viewBox="0 0 407.4 494.3" style="enable-background:new 0 0 407.4 494.3;" xml:space="preserve">
<style type="text/css">
	.st0{fill:#C04240;}
	.st1{fill:#F5A71F;}
	.st2{fill:#FDC609;}
	.st3{fill:#8FC03D;stroke:#64996B;stroke-width:13.1381;stroke-linejoin:round;stroke-miterlimit:10;}
	.st4{fill:#8FC03D;stroke:#64996B;stroke-width:13.1332;stroke-linejoin:round;stroke-miterlimit:10;}
</style>
<g>
	<path class="st0" d="M403.3,119.9c-29.2-32.5-93-90.3-192-111.3C169.7-0.1,127.1-1.4,84.6,5c-26.5,4-52.4,10.9-77,20.4
		c-4.5,1.7-7.1,6.4-6.2,11.1L82,483.5c0.7,3.8,3.5,6.9,7.2,7.9c0.9,0.2,1.8,0.3,2.6,0.3c2.9,0,5.7-1.2,7.6-3.5l304.1-355.1
		C406.7,129.3,406.7,123.7,403.3,119.9z M207.2,28.2c87.2,18.5,145.5,67.2,175.3,98.6l-19.6,22.9c-8.8-18.3-20.8-31.6-35.8-39.6
		c-12.8-6.9-22.5-7.1-32.7-7.3c-8.5-0.2-17.2-0.3-29.4-4.6c-17.2-6-24.9-14.5-32.3-22.7c-7.6-8.4-15.5-17.2-32.1-20.8
		c-16.7-3.7-27.5,0.8-38,5.1c-10.4,4.3-20.1,8.3-37,5.6c-11.8-1.9-19.3-5.8-26.5-9.7c-8.5-4.6-17.4-9.3-31.4-8.9
		c-14.1,0.4-28,5.7-41.4,15.8l-3.9-21.5C59.8,27.8,127.6,11.4,207.2,28.2z M68.2,58.9C79,58.6,85.4,62,93.6,66.4
		c7.7,4.1,16.5,8.8,30.2,11c20.2,3.2,32.5-1.9,43.4-6.4c10-4.1,17.9-7.4,30.8-4.5c12.9,2.9,18.6,9.2,25.8,17.2
		c8,8.9,17.1,19,37.2,26c14,4.9,24.1,5.1,33.1,5.2c9.5,0.2,17,0.3,27.2,5.9c13.8,7.4,24.9,20.6,32.8,39.1L97.9,459.2L28.8,76.1
		C41.8,65.1,55,59.3,68.2,58.9z"/>
	<path class="st1" d="M354.3,159.8L97.9,459.2L28.8,76.1c13-11.1,26.2-16.9,39.3-17.2C79,58.6,85.4,62,93.6,66.4
		c7.7,4.1,16.5,8.8,30.2,11c20.2,3.2,32.5-1.9,43.4-6.4c10-4.1,17.9-7.4,30.8-4.5c12.9,2.9,18.6,9.2,25.8,17.2
		c8,8.9,17.1,19,37.2,26c14,4.9,24.1,5.1,33.1,5.2c9.5,0.2,17,0.3,27.2,5.9C335.3,128.1,346.4,141.3,354.3,159.8z"/>
	<path class="st2" d="M382.5,126.9l-19.6,22.9c-8.8-18.3-20.8-31.6-35.8-39.6c-12.8-6.9-22.5-7.1-32.7-7.3
		c-8.5-0.2-17.2-0.3-29.4-4.6c-17.2-6-24.9-14.5-32.3-22.7c-7.6-8.4-15.5-17.2-32.1-20.8c-16.7-3.7-27.5,0.8-38,5.1
		c-10.4,4.3-20.1,8.3-37,5.6c-11.8-1.9-19.3-5.8-26.5-9.7c-8.5-4.6-17.4-9.3-31.4-8.9c-14.1,0.4-28,5.7-41.4,15.8l-3.9-21.5
		c37.3-13.4,105-29.8,184.6-13C294.4,46.7,352.7,95.5,382.5,126.9z"/>
</g>
<circle class="st0" cx="92.2" cy="130.1" r="45.7"/>
<circle class="st0" cx="268.9" cy="172.1" r="45.7"/>
<circle class="st0" cx="163.6" cy="213.6" r="45.7"/>
<circle class="st0" cx="132.4" cy="336.7" r="45.7"/>
<path class="st3" d="M194.5,146.3c-8.9-2.8-17.8-5.5-26.6-8.3l3.5-32l25.1-3.6c2.6,1.9,5.1,3.9,7.7,5.8
	C201,120.9,197.7,133.6,194.5,146.3z"/>
<path class="st4" d="M106.5,259.8c-9.1,0.5-18.1,1.1-27.2,1.6l-8.4-31.9l21.4-12.4c3,0.9,6,1.8,9.1,2.8
	C103.1,233.2,104.8,246.5,106.5,259.8z"/>
<path class="st3" d="M206,305.9c-6-7.1-12.1-14.2-18.1-21.2l20.1-25.2l23.1,10.4c1.1,3,2.3,6,3.4,9C225,287.9,215.5,296.9,206,305.9
	z"/>
</svg>
