<svg xmlns="http://www.w3.org/2000/svg" width="36" height="36" viewBox="0 0 24 24" fill="none">
	<circle cx="12" cy="12" r="11" stroke="black" stroke-width="1.5" />
	<g transform="translate(6.7 6.7)" fill="black">
		<path
			d="M6.778 8.118a.49.49 0 0 0 .594-.148l.174-.228A.98.98 0 0 1 8.33 7.35h1.47a.98.98 0 0 1 .98.98v1.47a.98.98 0 0 1-.98.98A8.82 8.82 0 0 1 .98 1.96a.98.98 0 0 1 .98-.98h1.47a.98.98 0 0 1 .98.98v1.47a.98.98 0 0 1-.392.784l-.229.172a.49.49 0 0 0-.143.28 6.86 6.86 0 0 0 3.132 3.128" />
	</g>
</svg>
  