<?xml version="1.0" encoding="utf-8"?>
<!-- Generator: Adobe Illustrator 24.3.0, SVG Export Plug-In . SVG Version: 6.00 Build 0)  -->
<svg version="1.1" id="Слой_1" xmlns="http://www.w3.org/2000/svg" xmlns:xlink="http://www.w3.org/1999/xlink" x="0px" y="0px"
	 viewBox="0 0 1455.6 63.6" style="enable-background:new 0 0 1455.6 63.6;" xml:space="preserve">
<style type="text/css">
	.st0{fill:none;stroke:#1D1D1B;stroke-width:2;stroke-miterlimit:10;}
</style>
<polyline class="st0" points="0,63.6 25.7,5.1 25.7,44.3 52.2,23.8 77.5,44.1 111.5,23.8 156.4,62.2 207.5,3.2 245.5,32.7 
	293.7,24.1 320.4,43.9 359.2,23.8 413.5,44.3 447.9,3.2 500.5,44.1 571.4,3.2 580.8,43.9 626.3,23.6 680.4,44.3 721,15.3 
	794.1,44.3 855,3.2 921.4,62.2 987.1,3.2 1040.6,44.1 1068.1,23.9 1100.7,44.3 1142.6,3.2 1168.1,62.2 1211.7,23.9 1236.1,44.9 
	1276.2,15.5 1310.2,62.2 1342.7,3.2 1381.1,44.5 1441,3.2 1455.6,63.6 "/>
</svg>
