<?xml version="1.0" encoding="utf-8"?>
<svg version="1.1" id="bb8" xmlns="http://www.w3.org/2000/svg" xmlns:xlink="http://www.w3.org/1999/xlink" x="0px" y="0px"
	 viewBox="0 0 111.8 170.8" style="enable-background:new 0 0 111.8 170.8;" xml:space="preserve">
<style type="text/css">
	.st0{fill:#EBEBEB;}
	.st1{fill:#F25E0E;}
	.st2{fill:#808080;}
	.st3{fill-opacity:0.3;}
</style>
<g id="down">
	<path class="st0" d="M111.2,114.6c0,30.5-24.8,55.3-55.3,55.3c-11.4,0-22-3.5-30.8-9.4l0,0c0.4-0.4,0.4-1,0-1.4l-7.3-7.2
		c-0.4-0.4-1-0.4-1.4,0c-0.3,0.3-0.4,0.8-0.1,1.2c-9.7-10-15.6-23.5-15.6-38.5c0-16.8,7.5-31.9,19.4-42.1c0,0,0,0,0.1,0.1l14.5,14.5
		c0.2,0.2,0.5,0.3,0.7,0.3c0.3,0,0.5-0.1,0.7-0.3c0.4-0.4,0.4-1,0-1.4L21.6,71.2c9.4-7.5,21.4-12,34.3-12
		C86.4,59.3,111.2,84,111.2,114.6z"/>
	<g>
		<path class="st1" d="M108.5,131.8c-1.1,3.5-2.6,6.8-4.3,9.9c-1.8,0.4-3.7,0.6-5.6,0.6c-15.8,0-28.6-12.8-28.6-28.6
			c0-15.8,12.8-28.6,28.6-28.6c1.5,0,2.9,0.1,4.3,0.3c1.9,3,3.5,6.3,4.8,9.7c-1.4-0.7-2.8-1.2-4.3-1.6l-1.7,7.1h-5.3l-1.7-7.3
			c-8.3,1.6-14.8,8.2-16.3,16.5l7.2,1.7v5.3l-7,1.6c1.9,7.7,8.1,13.7,15.9,15.3l1.5-6.3h5.3l1.5,6.3
			C104.8,133.5,106.7,132.7,108.5,131.8z"/>
		<g>
			<path class="st2" d="M108.8,117.8c-0.3,0-0.5-0.1-0.7-0.3L96,105.4c-0.4-0.4-0.4-1,0-1.4s1-0.4,1.4,0l12.1,12.1
				c0.4,0.4,0.4,1,0,1.4C109.3,117.7,109.1,117.8,108.8,117.8z"/>
		</g>
		<g>
			<path class="st2" d="M107.1,121.9c-0.3,0-0.5-0.1-0.7-0.3l-14.6-14.6c-0.4-0.4-0.4-1,0-1.4s1-0.4,1.4,0l14.6,14.6
				c0.4,0.4,0.4,1,0,1.4C107.6,121.8,107.3,121.9,107.1,121.9z"/>
		</g>
		<g>
			<path class="st2" d="M102.7,123.6c-0.3,0-0.5-0.1-0.7-0.3l-12.1-12.1c-0.4-0.4-0.4-1,0-1.4s1-0.4,1.4,0l12.1,12.1
				c0.4,0.4,0.4,1,0,1.4C103.2,123.5,103,123.6,102.7,123.6z"/>
		</g>
		<g>
			<path class="st2" d="M97.3,124c-0.3,0-0.5-0.1-0.7-0.3l-7.3-7.3c-0.4-0.4-0.4-1,0-1.4s1-0.4,1.4,0l7.3,7.3c0.4,0.4,0.4,1,0,1.4
				C97.8,123.9,97.5,124,97.3,124z"/>
		</g>
		<g>
			<path class="st2" d="M109.1,112.2c-0.3,0-0.5-0.1-0.7-0.3l-7.3-7.3c-0.4-0.4-0.4-1,0-1.4s1-0.4,1.4,0l7.3,7.3
				c0.4,0.4,0.4,1,0,1.4C109.6,112.1,109.4,112.2,109.1,112.2z"/>
		</g>
	</g>
	<g>
		<path class="st1" d="M54.9,149.3c0,7.7-3,14.7-7.9,19.9c-3.2-0.5-6.4-1.3-9.4-2.4c4.3-2.8,7.5-7.2,8.8-12.4l-7-1.6l0-5.3l7.3-1.8
			c-1.5-8.1-7.7-14.6-15.7-16.4l-1.7,7.1l-5.3,0l-1.8-7.2c-6.7,1.3-12.1,5.9-14.8,12c-1.6-2.8-2.9-5.8-3.9-8.9
			c5.2-6.9,13.4-11.3,22.6-11.4C41.9,120.8,54.8,133.6,54.9,149.3z"/>
		<g>
			<g>
				<path class="st2" d="M35.9,154.5c-0.3,0-0.5-0.1-0.7-0.3l-12.2-12c-0.4-0.4-0.4-1,0-1.4c0.4-0.4,1-0.4,1.4,0l12.2,12
					c0.4,0.4,0.4,1,0,1.4C36.4,154.4,36.1,154.5,35.9,154.5z"/>
			</g>
			<g>
				<path class="st2" d="M34.2,158.6c-0.3,0-0.5-0.1-0.7-0.3l-14.7-14.5c-0.4-0.4-0.4-1,0-1.4c0.4-0.4,1-0.4,1.4,0l14.7,14.5
					c0.4,0.4,0.4,1,0,1.4C34.7,158.5,34.4,158.6,34.2,158.6z"/>
			</g>
			<g>
				<path class="st2" d="M29.8,160.3c-0.3,0-0.5-0.1-0.7-0.3l-12.2-12c-0.4-0.4-0.4-1,0-1.4c0.4-0.4,1-0.4,1.4,0l12.2,12
					c0.4,0.4,0.4,1,0,1.4C30.3,160.2,30.1,160.3,29.8,160.3z"/>
			</g>
			<path class="st2" d="M25.1,160.5L25.1,160.5c-3.2-2.1-6.2-4.6-8.9-7.4c-0.2-0.4-0.2-0.9,0.1-1.2c0.4-0.4,1-0.4,1.4,0l7.3,7.2
				C25.5,159.4,25.5,160.1,25.1,160.5z"/>
			<g>
				<path class="st2" d="M36.1,148.8c-0.3,0-0.5-0.1-0.7-0.3l-7.3-7.2c-0.4-0.4-0.4-1,0-1.4c0.4-0.4,1-0.4,1.4,0l7.3,7.2
					c0.4,0.4,0.4,1,0,1.4C36.7,148.7,36.4,148.8,36.1,148.8z"/>
			</g>
		</g>
	</g>
	<g>
		<path class="st1" d="M55.9,78.3c0,15.8-12.8,28.6-28.6,28.6c-9.5,0-18-4.7-23.1-11.8c1.1-3,2.5-5.9,4.1-8.6
			c2.6,6.2,8.2,10.8,14.9,12.1l1.5-6.3H30l1.5,6.3c7.8-1.6,14-7.7,15.9-15.4l-6.8-1.6v-5.3l7-1.6c-1-5.2-3.9-9.8-8-12.8
			c3-0.9,6.2-1.6,9.4-2C53.3,64.8,55.9,71.3,55.9,78.3z"/>
		<g>
			<path class="st2" d="M37.1,83.3c-0.3,0-0.5-0.1-0.7-0.3L24.3,70.9c-0.4-0.4-0.4-1,0-1.4s1-0.4,1.4,0l12.1,12.1
				c0.4,0.4,0.4,1,0,1.4C37.6,83.2,37.3,83.3,37.1,83.3z"/>
		</g>
		<g>
			<g>
				<path class="st2" d="M36,87.1c-0.2,0.2-0.5,0.3-0.7,0.3c-0.3,0-0.5-0.1-0.7-0.3L20.1,72.6c0,0-0.1-0.1-0.1-0.1
					c0.5-0.4,1-0.9,1.6-1.3L36,85.7C36.4,86.1,36.4,86.7,36,87.1z"/>
			</g>
		</g>
		<g>
			<path class="st2" d="M31,89.1c-0.3,0-0.5-0.1-0.7-0.3L18.2,76.7c-0.4-0.4-0.4-1,0-1.4s1-0.4,1.4,0l12.1,12.1c0.4,0.4,0.4,1,0,1.4
				C31.5,89,31.2,89.1,31,89.1z"/>
		</g>
		<g>
			<path class="st2" d="M25.5,89.5c-0.3,0-0.5-0.1-0.7-0.3l-7.3-7.3c-0.4-0.4-0.4-1,0-1.4s1-0.4,1.4,0l7.3,7.3c0.4,0.4,0.4,1,0,1.4
				C26,89.4,25.8,89.5,25.5,89.5z"/>
		</g>
		<g>
			<path class="st2" d="M37.4,77.6c-0.3,0-0.5-0.1-0.7-0.3l-7.3-7.3c-0.4-0.4-0.4-1,0-1.4s1-0.4,1.4,0l7.3,7.3c0.4,0.4,0.4,1,0,1.4
				C37.9,77.5,37.6,77.6,37.4,77.6z"/>
		</g>
	</g>
	<path class="st3" d="M30.4,65.6c7.6-4,16.3-6.2,25.5-6.2c9,0,17.5,2.2,25,6"/>
</g>
<g id="up">
	<path class="st0" d="M88,54.8c-0.2,2.9-1.3,9-1.3,9H24.3c0,0-2.3-6.8-2.5-9.8c-0.9-17.8,15.1-33.1,33.1-33.1c0.7,0,1.4,0,2.1,0.1
		c0.7,0,1.3,0.1,2,0.2c1.1,0.1,2.2,0.4,3.2,0.6c0.7,0.2,1.3,0.4,2,0.6C77.9,26.6,88.8,39.9,88,54.8z"/>
	<g>
		<path class="st2" d="M75.8,32H33.2c-0.6,0-1-0.4-1-1s0.4-1,1-1h42.7c0.6,0,1,0.4,1,1S76.4,32,75.8,32z"/>
	</g>
	<g>
		<path class="st1" d="M79.7,36.6H60.5c-0.6,0-1-0.4-1-1s0.4-1,1-1h19.2c0.6,0,1,0.4,1,1S80.3,36.6,79.7,36.6z"/>
	</g>
	<g>
		<path class="st1" d="M41.3,36.6h-12c-0.6,0-1-0.4-1-1s0.4-1,1-1h12c0.6,0,1,0.4,1,1S41.9,36.6,41.3,36.6z"/>
	</g>
	<g>
		<path class="st1" d="M85.9,52.5h-15c-0.6,0-1-0.4-1-1s0.4-1,1-1h15c0.6,0,1,0.4,1,1S86.4,52.5,85.9,52.5z"/>
	</g>
	<g>
		<path class="st1" d="M34,52.5H23.6c-0.6,0-1-0.4-1-1s0.4-1,1-1H34c0.6,0,1,0.4,1,1S34.5,52.5,34,52.5z"/>
	</g>
	<g>
		<line x1="24.6" y1="55.9" x2="85.8" y2="55.9"/>
		<path class="st2" d="M85.8,56.9H24.6c-0.6,0-1-0.4-1-1s0.4-1,1-1h61.3c0.6,0,1,0.4,1,1S86.4,56.9,85.8,56.9z"/>
	</g>
	<circle cx="50.2" cy="41.7" r="6.5"/>
	<circle cx="63.8" cy="48.8" r="3.6"/>
	<path class="st2" d="M64.2,9.3v13c-0.7-0.2-1.3-0.4-2-0.6V9.3c0-0.6,0.4-1,1-1C63.7,8.3,64.2,8.8,64.2,9.3z"/>
	<path class="st2" d="M58.9,2v19.1c-0.7-0.1-1.3-0.2-2-0.2V2c0-0.6,0.5-1,1-1C58.5,1,58.9,1.5,58.9,2z"/>
</g>
</svg>
